<?xml version="1.0" encoding="UTF-8"?>
<svg xmlns="http://www.w3.org/2000/svg" xmlns:xlink="http://www.w3.org/1999/xlink" width="50px" height="50px" viewBox="0 0 50 50" version="1.1">
<g id="surface1">
<path style=" stroke:none;fill-rule:nonzero;fill:rgb(23.137255%,34.117648%,62.352943%);fill-opacity:1;" d="M 21.417969 4.191406 C 21.570312 4.324219 21.722656 4.457031 21.875 4.589844 C 21.9375 4.644531 22 4.699219 22.0625 4.753906 C 23.25 5.855469 23.960938 7.527344 24.054688 9.128906 C 24.101562 10.453125 23.863281 11.570312 23.339844 12.792969 C 24.4375 12.761719 25.53125 12.726562 26.660156 12.695312 C 26.417969 12.066406 26.417969 12.066406 26.171875 11.425781 C 25.808594 9.589844 25.929688 7.730469 26.910156 6.09375 C 27.078125 5.84375 27.253906 5.605469 27.441406 5.371094 C 27.535156 5.25 27.535156 5.25 27.632812 5.125 C 28.679688 3.863281 30.222656 3.074219 31.835938 2.832031 C 33.761719 2.664062 35.625 3.015625 37.148438 4.265625 C 38.613281 5.535156 39.542969 7.253906 39.683594 9.199219 C 39.738281 10.410156 39.523438 11.613281 38.964844 12.695312 C 39.042969 12.695312 39.121094 12.695312 39.203125 12.695312 C 39.953125 12.703125 40.699219 12.710938 41.445312 12.71875 C 41.828125 12.722656 42.214844 12.726562 42.597656 12.730469 C 42.96875 12.730469 43.339844 12.734375 43.710938 12.742188 C 43.851562 12.742188 43.992188 12.742188 44.132812 12.742188 C 45.003906 12.75 45.6875 12.792969 46.453125 13.238281 C 47.085938 13.90625 47.238281 14.644531 47.230469 15.535156 C 47.230469 15.640625 47.230469 15.746094 47.230469 15.851562 C 47.234375 16.199219 47.234375 16.550781 47.230469 16.898438 C 47.230469 17.148438 47.234375 17.398438 47.234375 17.648438 C 47.234375 18.257812 47.234375 18.867188 47.234375 19.476562 C 47.234375 19.96875 47.234375 20.464844 47.234375 20.960938 C 47.234375 21.03125 47.234375 21.101562 47.234375 21.175781 C 47.234375 21.316406 47.234375 21.460938 47.234375 21.605469 C 47.234375 22.949219 47.234375 24.289062 47.230469 25.632812 C 47.230469 26.785156 47.230469 27.9375 47.230469 29.085938 C 47.234375 30.425781 47.234375 31.765625 47.234375 33.101562 C 47.234375 33.246094 47.234375 33.390625 47.234375 33.53125 C 47.234375 33.601562 47.234375 33.671875 47.234375 33.746094 C 47.234375 34.238281 47.234375 34.734375 47.234375 35.226562 C 47.234375 35.894531 47.234375 36.558594 47.230469 37.222656 C 47.230469 37.46875 47.230469 37.710938 47.234375 37.957031 C 47.234375 38.289062 47.230469 38.625 47.230469 38.957031 C 47.230469 39.054688 47.230469 39.148438 47.234375 39.246094 C 47.222656 39.929688 47.050781 40.441406 46.679688 41.015625 C 46.449219 41.234375 46.449219 41.234375 46.226562 41.363281 C 46.152344 41.40625 46.082031 41.453125 46.003906 41.5 C 45.621094 41.691406 45.320312 41.710938 44.894531 41.710938 C 44.703125 41.710938 44.703125 41.710938 44.503906 41.710938 C 44.363281 41.710938 44.21875 41.710938 44.074219 41.710938 C 43.925781 41.710938 43.777344 41.710938 43.625 41.710938 C 43.21875 41.710938 42.808594 41.710938 42.402344 41.710938 C 41.976562 41.707031 41.550781 41.707031 41.125 41.707031 C 40.316406 41.707031 39.507812 41.707031 38.703125 41.707031 C 37.78125 41.707031 36.863281 41.703125 35.945312 41.703125 C 34.054688 41.703125 32.164062 41.703125 30.273438 41.699219 C 30.273438 43.34375 30.273438 44.984375 30.273438 46.679688 C 31.542969 46.664062 31.542969 46.664062 32.808594 46.644531 C 32.96875 46.644531 33.128906 46.640625 33.285156 46.640625 C 33.371094 46.640625 33.453125 46.636719 33.535156 46.636719 C 34.117188 46.636719 34.117188 46.636719 34.429688 46.855469 C 34.570312 47.070312 34.570312 47.070312 34.558594 47.425781 C 34.472656 47.753906 34.472656 47.753906 34.277344 47.949219 C 34.03125 47.96875 33.800781 47.976562 33.554688 47.976562 C 33.480469 47.976562 33.40625 47.976562 33.328125 47.976562 C 33.074219 47.976562 32.820312 47.976562 32.566406 47.976562 C 32.382812 47.976562 32.203125 47.976562 32.019531 47.976562 C 31.527344 47.980469 31.035156 47.980469 30.539062 47.980469 C 30.128906 47.980469 29.71875 47.980469 29.304688 47.980469 C 28.335938 47.980469 27.363281 47.980469 26.394531 47.980469 C 25.390625 47.980469 24.386719 47.980469 23.386719 47.984375 C 22.523438 47.984375 21.664062 47.984375 20.804688 47.984375 C 20.292969 47.984375 19.777344 47.984375 19.261719 47.984375 C 18.78125 47.988281 18.296875 47.988281 17.8125 47.984375 C 17.636719 47.984375 17.457031 47.984375 17.28125 47.988281 C 17.039062 47.988281 16.796875 47.988281 16.554688 47.984375 C 16.484375 47.988281 16.414062 47.988281 16.339844 47.988281 C 16.0625 47.984375 15.867188 47.980469 15.628906 47.820312 C 15.453125 47.535156 15.488281 47.296875 15.527344 46.972656 C 15.699219 46.769531 15.839844 46.691406 16.105469 46.65625 C 16.339844 46.644531 16.574219 46.648438 16.8125 46.652344 C 16.925781 46.652344 16.925781 46.652344 17.042969 46.652344 C 17.328125 46.652344 17.609375 46.65625 17.894531 46.660156 C 18.53125 46.667969 19.167969 46.671875 19.824219 46.679688 C 19.824219 45.035156 19.824219 43.390625 19.824219 41.699219 C 19.363281 41.703125 18.90625 41.703125 18.433594 41.707031 C 16.914062 41.714844 15.394531 41.71875 13.878906 41.722656 C 12.957031 41.726562 12.035156 41.730469 11.117188 41.734375 C 10.3125 41.742188 9.511719 41.742188 8.707031 41.746094 C 8.285156 41.746094 7.859375 41.746094 7.433594 41.75 C 7.035156 41.753906 6.632812 41.753906 6.234375 41.753906 C 6.085938 41.753906 5.941406 41.753906 5.792969 41.757812 C 4.875 41.769531 4.070312 41.710938 3.355469 41.066406 C 2.8125 40.460938 2.804688 39.882812 2.804688 39.109375 C 2.804688 39.003906 2.804688 38.898438 2.804688 38.792969 C 2.800781 38.441406 2.800781 38.089844 2.800781 37.738281 C 2.800781 37.488281 2.800781 37.234375 2.800781 36.984375 C 2.796875 36.300781 2.796875 35.617188 2.796875 34.933594 C 2.796875 34.507812 2.796875 34.078125 2.792969 33.652344 C 2.792969 32.46875 2.789062 31.285156 2.789062 30.101562 C 2.789062 30.023438 2.789062 29.949219 2.789062 29.871094 C 2.789062 29.71875 2.789062 29.566406 2.789062 29.410156 C 2.789062 29.335938 2.789062 29.257812 2.789062 29.179688 C 2.789062 29.105469 2.789062 29.027344 2.789062 28.949219 C 2.789062 27.714844 2.789062 26.476562 2.785156 25.242188 C 2.78125 23.972656 2.777344 22.703125 2.777344 21.433594 C 2.777344 20.722656 2.777344 20.011719 2.773438 19.296875 C 2.773438 18.628906 2.773438 17.957031 2.773438 17.289062 C 2.773438 17.042969 2.773438 16.796875 2.769531 16.550781 C 2.769531 16.214844 2.769531 15.878906 2.773438 15.542969 C 2.769531 15.445312 2.769531 15.347656 2.769531 15.25 C 2.777344 14.566406 2.949219 14.054688 3.320312 13.476562 C 3.546875 13.257812 3.546875 13.257812 3.765625 13.128906 C 3.839844 13.085938 3.910156 13.039062 3.984375 12.992188 C 4.398438 12.792969 4.769531 12.777344 5.226562 12.773438 C 5.289062 12.773438 5.351562 12.769531 5.417969 12.769531 C 5.625 12.765625 5.832031 12.765625 6.039062 12.761719 C 6.183594 12.761719 6.324219 12.757812 6.46875 12.757812 C 6.847656 12.75 7.226562 12.746094 7.605469 12.742188 C 7.992188 12.734375 8.375 12.730469 8.761719 12.726562 C 9.519531 12.714844 10.277344 12.703125 11.035156 12.695312 C 10.984375 12.558594 10.984375 12.558594 10.933594 12.417969 C 10.890625 12.300781 10.84375 12.179688 10.800781 12.054688 C 10.753906 11.933594 10.710938 11.816406 10.667969 11.691406 C 10.128906 10.054688 10.289062 8.265625 10.988281 6.703125 C 11.921875 4.863281 13.339844 3.710938 15.25 3.011719 C 17.355469 2.429688 19.699219 2.855469 21.417969 4.191406 Z M 21.417969 4.191406 "/>
<path style=" stroke:none;fill-rule:nonzero;fill:rgb(38.431373%,53.333336%,79.607844%);fill-opacity:1;" d="M 21.417969 4.191406 C 21.570312 4.324219 21.722656 4.457031 21.875 4.589844 C 21.9375 4.644531 22 4.699219 22.0625 4.753906 C 23.25 5.855469 23.960938 7.527344 24.054688 9.128906 C 24.101562 10.453125 23.863281 11.570312 23.339844 12.792969 C 24.4375 12.761719 25.53125 12.726562 26.660156 12.695312 C 26.417969 12.066406 26.417969 12.066406 26.171875 11.425781 C 25.808594 9.589844 25.929688 7.730469 26.910156 6.09375 C 27.078125 5.84375 27.253906 5.605469 27.441406 5.371094 C 27.535156 5.25 27.535156 5.25 27.632812 5.125 C 28.679688 3.863281 30.222656 3.074219 31.835938 2.832031 C 33.761719 2.664062 35.625 3.015625 37.148438 4.265625 C 38.613281 5.535156 39.542969 7.253906 39.683594 9.199219 C 39.738281 10.410156 39.523438 11.613281 38.964844 12.695312 C 39.042969 12.695312 39.121094 12.695312 39.203125 12.695312 C 39.953125 12.703125 40.699219 12.710938 41.445312 12.71875 C 41.828125 12.722656 42.214844 12.726562 42.597656 12.730469 C 42.96875 12.730469 43.339844 12.734375 43.710938 12.742188 C 43.851562 12.742188 43.992188 12.742188 44.132812 12.742188 C 45.003906 12.75 45.6875 12.792969 46.453125 13.238281 C 47.316406 14.148438 47.234375 15.1875 47.214844 16.363281 C 47.214844 16.550781 47.214844 16.734375 47.214844 16.917969 C 47.210938 17.402344 47.207031 17.886719 47.203125 18.367188 C 47.195312 18.863281 47.195312 19.355469 47.191406 19.851562 C 47.1875 20.820312 47.179688 21.785156 47.167969 22.753906 C 47.136719 22.753906 47.101562 22.753906 47.070312 22.753906 C 47.050781 22.65625 47.03125 22.5625 47.011719 22.464844 C 46.632812 20.695312 45.773438 19.140625 44.25 18.09375 C 42.535156 17.050781 40.601562 16.671875 38.625 17.097656 C 36.722656 17.683594 35.28125 18.917969 34.34375 20.660156 C 33.980469 21.402344 33.855469 22.136719 33.691406 22.949219 C 31.015625 22.949219 28.34375 22.949219 25.585938 22.949219 C 25.585938 23.5625 25.585938 24.171875 25.585938 24.804688 C 27.101562 24.804688 28.617188 24.804688 30.175781 24.804688 C 30.175781 27.320312 30.175781 29.832031 30.175781 32.421875 C 29.210938 32.453125 28.242188 32.484375 27.246094 32.519531 C 26.652344 32.910156 26.390625 33.089844 25.976562 33.59375 C 25.714844 33.824219 25.714844 33.824219 25.488281 33.984375 C 25.269531 33.964844 25.15625 33.945312 25 33.789062 C 25 33.335938 25 32.886719 25 32.421875 C 23.292969 32.421875 21.585938 32.421875 19.824219 32.421875 C 19.824219 29.90625 19.824219 27.394531 19.824219 24.804688 C 21.339844 24.804688 22.851562 24.804688 24.414062 24.804688 C 24.414062 24.226562 24.414062 23.644531 24.414062 23.046875 C 21.773438 23.046875 19.128906 23.046875 16.40625 23.046875 C 16.40625 23.433594 16.40625 23.820312 16.40625 24.21875 C 16.21875 25.964844 15.433594 27.667969 14.0625 28.808594 C 12.382812 30.15625 10.546875 30.515625 8.453125 30.34375 C 7.753906 30.25 7.164062 30.015625 6.542969 29.6875 C 6.460938 29.644531 6.378906 29.601562 6.292969 29.554688 C 4.726562 28.675781 3.679688 27.339844 3.113281 25.648438 C 2.78125 24.472656 2.773438 23.332031 2.777344 22.117188 C 2.777344 21.898438 2.777344 21.679688 2.773438 21.460938 C 2.773438 21.003906 2.773438 20.550781 2.777344 20.09375 C 2.777344 19.511719 2.773438 18.929688 2.773438 18.347656 C 2.769531 17.898438 2.769531 17.449219 2.769531 16.996094 C 2.769531 16.78125 2.769531 16.566406 2.769531 16.351562 C 2.765625 16.054688 2.769531 15.753906 2.769531 15.453125 C 2.769531 15.367188 2.769531 15.277344 2.765625 15.1875 C 2.777344 14.449219 3.007812 13.78125 3.546875 13.257812 C 3.65625 13.191406 3.65625 13.191406 3.765625 13.128906 C 3.839844 13.085938 3.910156 13.039062 3.984375 12.992188 C 4.398438 12.792969 4.769531 12.777344 5.226562 12.773438 C 5.289062 12.773438 5.351562 12.769531 5.417969 12.769531 C 5.625 12.765625 5.832031 12.765625 6.039062 12.761719 C 6.183594 12.761719 6.324219 12.757812 6.46875 12.757812 C 6.847656 12.75 7.226562 12.746094 7.605469 12.742188 C 7.992188 12.734375 8.375 12.730469 8.761719 12.726562 C 9.519531 12.714844 10.277344 12.703125 11.035156 12.695312 C 10.984375 12.558594 10.984375 12.558594 10.933594 12.417969 C 10.890625 12.300781 10.84375 12.179688 10.800781 12.054688 C 10.753906 11.933594 10.710938 11.816406 10.667969 11.691406 C 10.128906 10.054688 10.289062 8.265625 10.988281 6.703125 C 11.921875 4.863281 13.339844 3.710938 15.25 3.011719 C 17.355469 2.429688 19.699219 2.855469 21.417969 4.191406 Z M 21.417969 4.191406 "/>
<path style=" stroke:none;fill-rule:nonzero;fill:rgb(65.490198%,71.372551%,92.941177%);fill-opacity:1;" d="M 2.832031 35.839844 C 17.460938 35.839844 32.09375 35.839844 47.167969 35.839844 C 47.167969 40.039062 47.167969 40.039062 46.679688 41.015625 C 46.449219 41.234375 46.449219 41.234375 46.226562 41.363281 C 46.152344 41.40625 46.082031 41.453125 46.003906 41.5 C 45.621094 41.691406 45.320312 41.710938 44.894531 41.710938 C 44.703125 41.710938 44.703125 41.710938 44.503906 41.710938 C 44.363281 41.710938 44.21875 41.710938 44.074219 41.710938 C 43.925781 41.710938 43.777344 41.710938 43.625 41.710938 C 43.21875 41.710938 42.808594 41.710938 42.402344 41.710938 C 41.976562 41.707031 41.550781 41.707031 41.125 41.707031 C 40.316406 41.707031 39.507812 41.707031 38.703125 41.707031 C 37.78125 41.707031 36.863281 41.703125 35.945312 41.703125 C 34.054688 41.703125 32.164062 41.703125 30.273438 41.699219 C 30.273438 43.34375 30.273438 44.984375 30.273438 46.679688 C 31.542969 46.664062 31.542969 46.664062 32.808594 46.644531 C 32.96875 46.644531 33.128906 46.640625 33.285156 46.640625 C 33.371094 46.640625 33.453125 46.636719 33.535156 46.636719 C 34.117188 46.636719 34.117188 46.636719 34.429688 46.855469 C 34.570312 47.070312 34.570312 47.070312 34.558594 47.425781 C 34.472656 47.753906 34.472656 47.753906 34.277344 47.949219 C 34.03125 47.96875 33.800781 47.976562 33.554688 47.976562 C 33.441406 47.976562 33.441406 47.976562 33.328125 47.976562 C 33.074219 47.976562 32.820312 47.976562 32.566406 47.976562 C 32.382812 47.976562 32.203125 47.976562 32.019531 47.976562 C 31.527344 47.980469 31.035156 47.980469 30.539062 47.980469 C 30.128906 47.980469 29.71875 47.980469 29.304688 47.980469 C 28.335938 47.980469 27.363281 47.980469 26.394531 47.980469 C 25.390625 47.980469 24.386719 47.980469 23.386719 47.984375 C 22.523438 47.984375 21.664062 47.984375 20.804688 47.984375 C 20.292969 47.984375 19.777344 47.984375 19.261719 47.984375 C 18.78125 47.988281 18.296875 47.988281 17.8125 47.984375 C 17.636719 47.984375 17.457031 47.984375 17.28125 47.988281 C 17.039062 47.988281 16.796875 47.988281 16.554688 47.984375 C 16.449219 47.988281 16.449219 47.988281 16.339844 47.988281 C 16.0625 47.984375 15.867188 47.980469 15.628906 47.820312 C 15.453125 47.535156 15.488281 47.296875 15.527344 46.972656 C 15.699219 46.769531 15.839844 46.691406 16.105469 46.65625 C 16.339844 46.644531 16.574219 46.648438 16.8125 46.652344 C 16.925781 46.652344 16.925781 46.652344 17.042969 46.652344 C 17.328125 46.652344 17.609375 46.65625 17.894531 46.660156 C 18.851562 46.671875 18.851562 46.671875 19.824219 46.679688 C 19.824219 45.035156 19.824219 43.390625 19.824219 41.699219 C 19.363281 41.703125 18.90625 41.703125 18.433594 41.707031 C 16.914062 41.714844 15.394531 41.71875 13.878906 41.722656 C 12.957031 41.726562 12.035156 41.730469 11.117188 41.734375 C 10.3125 41.742188 9.511719 41.742188 8.707031 41.746094 C 8.285156 41.746094 7.859375 41.746094 7.433594 41.75 C 7.035156 41.753906 6.632812 41.753906 6.234375 41.753906 C 6.085938 41.753906 5.941406 41.753906 5.792969 41.757812 C 4.875 41.769531 4.070312 41.710938 3.355469 41.066406 C 2.132812 39.699219 2.832031 37.34375 2.832031 35.839844 Z M 2.832031 35.839844 "/>
<path style=" stroke:none;fill-rule:nonzero;fill:rgb(97.647059%,46.666667%,78.039217%);fill-opacity:1;" d="M 21.417969 4.191406 C 21.570312 4.324219 21.722656 4.457031 21.875 4.589844 C 21.9375 4.644531 22 4.699219 22.0625 4.753906 C 23.25 5.855469 23.960938 7.527344 24.054688 9.128906 C 24.101562 10.4375 23.875 11.597656 23.339844 12.792969 C 23.273438 12.792969 23.210938 12.792969 23.144531 12.792969 C 23.125 12.859375 23.105469 12.921875 23.082031 12.988281 C 22.429688 14.417969 21.074219 15.402344 19.648438 15.972656 C 17.921875 16.613281 16.105469 16.621094 14.40625 15.863281 C 13.335938 15.316406 12.472656 14.609375 11.71875 13.671875 C 11.660156 13.597656 11.597656 13.523438 11.535156 13.445312 C 10.433594 11.992188 10.210938 10.164062 10.449219 8.398438 C 10.785156 6.695312 11.699219 5.144531 13.09375 4.09375 C 15.648438 2.417969 18.929688 2.253906 21.417969 4.191406 Z M 21.417969 4.191406 "/>
<path style=" stroke:none;fill-rule:nonzero;fill:rgb(87.843138%,1.568628%,34.901962%);fill-opacity:1;" d="M 44.238281 17.96875 C 45.703125 19.066406 46.773438 20.597656 47.125 22.40625 C 47.378906 24.453125 46.957031 26.261719 45.6875 27.910156 C 44.546875 29.234375 43.058594 30.167969 41.308594 30.371094 C 39.238281 30.503906 37.488281 30.089844 35.867188 28.71875 C 34.464844 27.433594 33.707031 25.804688 33.570312 23.914062 C 33.519531 22.085938 34.125 20.402344 35.351562 19.042969 C 35.398438 18.984375 35.449219 18.929688 35.5 18.871094 C 37.714844 16.425781 41.546875 16.277344 44.238281 17.96875 Z M 44.238281 17.96875 "/>
<path style=" stroke:none;fill-rule:nonzero;fill:rgb(28.627452%,69.411767%,96.470588%);fill-opacity:1;" d="M 13.789062 18.238281 C 15.058594 19.3125 16.15625 20.796875 16.347656 22.496094 C 16.359375 22.84375 16.363281 23.183594 16.359375 23.527344 C 16.359375 23.699219 16.359375 23.699219 16.363281 23.875 C 16.355469 25.695312 15.566406 27.242188 14.335938 28.546875 C 13.058594 29.789062 11.410156 30.402344 9.644531 30.40625 C 8.511719 30.386719 7.550781 30.222656 6.542969 29.6875 C 6.460938 29.644531 6.378906 29.601562 6.292969 29.554688 C 4.652344 28.636719 3.570312 27.207031 3.042969 25.414062 C 2.566406 23.640625 2.789062 21.859375 3.671875 20.253906 C 4.59375 18.679688 6.125 17.53125 7.859375 17 C 9.925781 16.554688 12.101562 16.949219 13.789062 18.238281 Z M 13.789062 18.238281 "/>
<path style=" stroke:none;fill-rule:nonzero;fill:rgb(23.137255%,34.509805%,62.7451%);fill-opacity:1;" d="M 5.226562 12.761719 C 5.324219 12.757812 5.324219 12.757812 5.421875 12.753906 C 6.003906 12.734375 6.585938 12.722656 7.167969 12.714844 C 7.558594 12.707031 7.949219 12.699219 8.339844 12.683594 C 11.089844 12.582031 11.089844 12.582031 11.640625 13.085938 C 11.90625 13.414062 12.046875 13.773438 12.207031 14.160156 C 13.199219 15.292969 14.726562 16.082031 16.210938 16.308594 C 16.507812 16.324219 16.800781 16.328125 17.097656 16.328125 C 17.179688 16.328125 17.261719 16.328125 17.347656 16.328125 C 17.828125 16.328125 18.25 16.277344 18.71875 16.15625 C 19.171875 16.070312 19.171875 16.070312 19.4375 16.238281 C 19.65625 16.476562 19.835938 16.726562 20.019531 16.992188 C 20.164062 17.183594 20.308594 17.375 20.457031 17.5625 C 20.566406 17.707031 20.671875 17.847656 20.78125 17.988281 C 21.171875 18.503906 21.574219 19.003906 21.984375 19.5 C 22.421875 20.027344 22.855469 20.554688 23.277344 21.085938 C 23.347656 21.171875 23.347656 21.171875 23.417969 21.261719 C 23.730469 21.65625 23.730469 21.65625 23.730469 21.875 C 21.214844 21.875 18.703125 21.875 16.113281 21.875 C 15.871094 21.246094 15.871094 21.246094 15.625 20.605469 C 14.625 18.855469 13.285156 17.679688 11.328125 17.132812 C 9.46875 16.667969 7.585938 17 5.949219 17.949219 C 4.449219 18.898438 3.4375 20.492188 3.039062 22.199219 C 3 22.382812 2.964844 22.570312 2.929688 22.753906 C 2.898438 22.753906 2.863281 22.753906 2.832031 22.753906 C 2.820312 21.6875 2.8125 20.625 2.808594 19.558594 C 2.804688 19.0625 2.800781 18.566406 2.796875 18.074219 C 2.789062 17.59375 2.785156 17.117188 2.785156 16.640625 C 2.785156 16.457031 2.78125 16.277344 2.78125 16.09375 C 2.753906 14.222656 2.753906 14.222656 3.320312 13.476562 C 3.546875 13.257812 3.546875 13.257812 3.765625 13.128906 C 3.839844 13.085938 3.910156 13.039062 3.984375 12.992188 C 4.394531 12.796875 4.777344 12.777344 5.226562 12.761719 Z M 5.226562 12.761719 "/>
<path style=" stroke:none;fill-rule:nonzero;fill:rgb(23.137255%,34.117648%,62.352943%);fill-opacity:1;" d="M 39.066406 12.839844 C 39.1875 12.839844 39.308594 12.839844 39.433594 12.835938 C 39.535156 12.835938 39.535156 12.835938 39.636719 12.832031 C 39.859375 12.832031 40.082031 12.832031 40.304688 12.832031 C 40.460938 12.832031 40.617188 12.832031 40.769531 12.828125 C 41.097656 12.828125 41.421875 12.828125 41.746094 12.828125 C 42.164062 12.832031 42.578125 12.828125 42.992188 12.820312 C 43.3125 12.820312 43.636719 12.820312 43.957031 12.820312 C 44.109375 12.820312 44.261719 12.820312 44.414062 12.816406 C 45.917969 12.800781 45.917969 12.800781 46.507812 13.292969 C 47.335938 14.183594 47.230469 15.21875 47.214844 16.363281 C 47.214844 16.550781 47.214844 16.734375 47.214844 16.917969 C 47.210938 17.402344 47.207031 17.886719 47.203125 18.367188 C 47.195312 18.863281 47.195312 19.355469 47.191406 19.851562 C 47.1875 20.820312 47.179688 21.785156 47.167969 22.753906 C 47.136719 22.753906 47.105469 22.753906 47.070312 22.753906 C 47.050781 22.65625 47.03125 22.5625 47.011719 22.464844 C 46.632812 20.695312 45.773438 19.140625 44.25 18.09375 C 42.535156 17.050781 40.601562 16.671875 38.625 17.097656 C 36.707031 17.6875 35.339844 18.914062 34.351562 20.632812 C 34.125 21.085938 34.125 21.085938 33.886719 21.972656 C 31.375 21.941406 28.859375 21.90625 26.269531 21.875 C 26.457031 21.5 26.675781 21.199219 26.933594 20.875 C 26.980469 20.816406 27.027344 20.753906 27.078125 20.695312 C 27.496094 20.167969 27.917969 19.648438 28.34375 19.132812 C 28.675781 18.722656 29 18.308594 29.320312 17.890625 C 29.632812 17.480469 29.945312 17.074219 30.265625 16.675781 C 30.335938 16.585938 30.40625 16.5 30.476562 16.410156 C 30.664062 16.210938 30.664062 16.210938 30.957031 16.113281 C 31.074219 16.144531 31.191406 16.171875 31.3125 16.203125 C 33.011719 16.613281 34.847656 16.203125 36.347656 15.355469 C 37.246094 14.785156 38.070312 14.011719 38.589844 13.078125 C 38.769531 12.890625 38.769531 12.890625 39.066406 12.839844 Z M 39.066406 12.839844 "/>
<path style=" stroke:none;fill-rule:nonzero;fill:rgb(98.823529%,85.09804%,25.490198%);fill-opacity:1;" d="M 19.824219 24.804688 C 23.242188 24.804688 26.65625 24.804688 30.175781 24.804688 C 30.175781 27.320312 30.175781 29.832031 30.175781 32.421875 C 29.210938 32.453125 28.242188 32.484375 27.246094 32.519531 C 26.652344 32.910156 26.390625 33.089844 25.976562 33.59375 C 25.714844 33.824219 25.714844 33.824219 25.488281 33.984375 C 25.269531 33.964844 25.15625 33.945312 25 33.789062 C 25 33.335938 25 32.886719 25 32.421875 C 23.292969 32.421875 21.585938 32.421875 19.824219 32.421875 C 19.824219 29.90625 19.824219 27.394531 19.824219 24.804688 Z M 19.824219 24.804688 "/>
<path style=" stroke:none;fill-rule:nonzero;fill:rgb(38.431373%,53.333336%,80.000001%);fill-opacity:1;" d="M 19.824219 41.699219 C 23.273438 41.699219 26.71875 41.699219 30.273438 41.699219 C 30.273438 43.34375 30.273438 44.984375 30.273438 46.679688 C 31.542969 46.664062 31.542969 46.664062 32.808594 46.644531 C 32.96875 46.644531 33.128906 46.640625 33.285156 46.640625 C 33.371094 46.640625 33.453125 46.636719 33.535156 46.636719 C 34.117188 46.636719 34.117188 46.636719 34.429688 46.855469 C 34.570312 47.070312 34.570312 47.070312 34.558594 47.425781 C 34.472656 47.753906 34.472656 47.753906 34.277344 47.949219 C 34.03125 47.96875 33.800781 47.976562 33.554688 47.976562 C 33.441406 47.976562 33.441406 47.976562 33.328125 47.976562 C 33.074219 47.976562 32.820312 47.976562 32.566406 47.976562 C 32.382812 47.976562 32.203125 47.976562 32.019531 47.976562 C 31.527344 47.980469 31.035156 47.980469 30.539062 47.980469 C 30.128906 47.980469 29.71875 47.980469 29.304688 47.980469 C 28.335938 47.980469 27.363281 47.980469 26.394531 47.980469 C 25.390625 47.980469 24.386719 47.980469 23.386719 47.984375 C 22.523438 47.984375 21.664062 47.984375 20.804688 47.984375 C 20.292969 47.984375 19.777344 47.984375 19.261719 47.984375 C 18.78125 47.988281 18.296875 47.988281 17.8125 47.984375 C 17.636719 47.984375 17.457031 47.984375 17.28125 47.988281 C 17.039062 47.988281 16.796875 47.988281 16.554688 47.984375 C 16.484375 47.988281 16.414062 47.988281 16.339844 47.988281 C 16.0625 47.984375 15.867188 47.980469 15.628906 47.820312 C 15.453125 47.535156 15.488281 47.296875 15.527344 46.972656 C 15.699219 46.769531 15.839844 46.691406 16.105469 46.65625 C 16.339844 46.644531 16.574219 46.648438 16.8125 46.652344 C 16.925781 46.652344 16.925781 46.652344 17.042969 46.652344 C 17.328125 46.652344 17.609375 46.65625 17.894531 46.660156 C 18.851562 46.671875 18.851562 46.671875 19.824219 46.679688 C 19.824219 45.035156 19.824219 43.390625 19.824219 41.699219 Z M 19.824219 41.699219 "/>
<path style=" stroke:none;fill-rule:nonzero;fill:rgb(23.137255%,34.117648%,62.352943%);fill-opacity:1;" d="M 24.777344 12.765625 C 25.042969 12.769531 25.304688 12.761719 25.566406 12.753906 C 26.789062 12.742188 26.789062 12.742188 27.210938 13.121094 C 27.386719 13.40625 27.386719 13.40625 27.515625 13.6875 C 27.898438 14.546875 28.808594 15.074219 29.589844 15.527344 C 29.4375 16.019531 29.140625 16.355469 28.816406 16.742188 C 28.699219 16.882812 28.582031 17.023438 28.46875 17.160156 C 28.410156 17.230469 28.351562 17.300781 28.292969 17.375 C 28.050781 17.671875 27.8125 17.972656 27.574219 18.273438 C 27.53125 18.328125 27.488281 18.382812 27.445312 18.441406 C 27.3125 18.609375 27.183594 18.777344 27.050781 18.945312 C 26.410156 19.765625 25.761719 20.582031 25.097656 21.386719 C 24.660156 21.234375 24.433594 20.882812 24.164062 20.53125 C 24.113281 20.464844 24.0625 20.402344 24.007812 20.332031 C 23.851562 20.132812 23.691406 19.929688 23.535156 19.726562 C 23.359375 19.5 23.179688 19.273438 23.003906 19.050781 C 22.960938 18.992188 22.917969 18.9375 22.875 18.882812 C 22.578125 18.503906 22.277344 18.132812 21.972656 17.761719 C 20.410156 15.851562 20.410156 15.851562 20.410156 15.527344 C 20.5625 15.425781 20.722656 15.332031 20.878906 15.242188 C 21.535156 14.835938 22.34375 14.277344 22.652344 13.542969 C 23.070312 12.636719 23.898438 12.75 24.777344 12.765625 Z M 24.777344 12.765625 "/>
<path style=" stroke:none;fill-rule:nonzero;fill:rgb(85.490197%,86.666667%,92.54902%);fill-opacity:1;" d="M 15.894531 6.308594 C 16.050781 6.308594 16.050781 6.308594 16.207031 6.308594 C 16.421875 6.308594 16.636719 6.308594 16.851562 6.308594 C 17.179688 6.3125 17.507812 6.308594 17.835938 6.308594 C 18.046875 6.308594 18.257812 6.308594 18.464844 6.308594 C 18.5625 6.308594 18.660156 6.308594 18.761719 6.308594 C 19.285156 6.3125 19.671875 6.335938 20.117188 6.640625 C 20.390625 6.941406 20.445312 7.140625 20.449219 7.542969 C 20.449219 7.644531 20.453125 7.746094 20.453125 7.851562 C 20.453125 7.960938 20.453125 8.070312 20.453125 8.183594 C 20.453125 8.296875 20.453125 8.410156 20.453125 8.527344 C 20.453125 8.765625 20.453125 9.007812 20.453125 9.246094 C 20.453125 9.609375 20.457031 9.976562 20.457031 10.34375 C 20.457031 10.574219 20.457031 10.808594 20.457031 11.039062 C 20.460938 11.148438 20.460938 11.261719 20.460938 11.371094 C 20.457031 12.128906 20.457031 12.128906 20.234375 12.511719 C 19.878906 12.816406 19.613281 12.914062 19.144531 12.917969 C 19 12.917969 19 12.917969 18.851562 12.921875 C 18.75 12.921875 18.644531 12.921875 18.539062 12.921875 C 18.433594 12.921875 18.328125 12.921875 18.214844 12.921875 C 17.992188 12.921875 17.765625 12.921875 17.539062 12.921875 C 17.195312 12.921875 16.851562 12.921875 16.503906 12.925781 C 16.285156 12.925781 16.066406 12.925781 15.847656 12.925781 C 15.746094 12.925781 15.640625 12.929688 15.535156 12.929688 C 14.605469 12.921875 14.605469 12.921875 14.257812 12.597656 C 13.886719 12.078125 13.921875 11.542969 13.921875 10.929688 C 13.921875 10.824219 13.921875 10.71875 13.921875 10.613281 C 13.921875 10.394531 13.921875 10.175781 13.921875 9.957031 C 13.921875 9.621094 13.917969 9.285156 13.917969 8.949219 C 13.917969 8.738281 13.917969 8.523438 13.917969 8.308594 C 13.914062 8.160156 13.914062 8.160156 13.914062 8.007812 C 13.917969 7.441406 13.957031 7.078125 14.355469 6.640625 C 14.800781 6.242188 15.328125 6.304688 15.894531 6.308594 Z M 15.894531 6.308594 "/>
<path style=" stroke:none;fill-rule:nonzero;fill:rgb(13.333334%,54.901963%,90.196079%);fill-opacity:1;" d="M 20.507812 15.722656 C 20.65625 15.898438 20.796875 16.082031 20.933594 16.265625 C 21.023438 16.382812 21.109375 16.5 21.199219 16.617188 C 21.246094 16.675781 21.289062 16.738281 21.339844 16.800781 C 21.585938 17.125 21.84375 17.4375 22.101562 17.75 C 22.605469 18.363281 23.089844 18.992188 23.570312 19.625 C 24.003906 20.191406 24.445312 20.742188 24.902344 21.289062 C 25.203125 21.160156 25.367188 21.03125 25.5625 20.769531 C 25.609375 20.703125 25.660156 20.636719 25.710938 20.570312 C 25.789062 20.464844 25.789062 20.464844 25.867188 20.355469 C 26.3125 19.757812 26.769531 19.175781 27.246094 18.601562 C 27.875 17.847656 28.476562 17.066406 29.070312 16.28125 C 29.238281 16.058594 29.414062 15.84375 29.589844 15.625 C 30.175781 15.820312 30.175781 15.820312 30.761719 16.015625 C 30.636719 16.289062 30.496094 16.511719 30.304688 16.742188 C 30.253906 16.804688 30.199219 16.867188 30.148438 16.929688 C 30.09375 16.996094 30.039062 17.0625 29.980469 17.132812 C 29.582031 17.617188 29.1875 18.105469 28.808594 18.601562 C 28.390625 19.152344 27.960938 19.683594 27.519531 20.214844 C 27.078125 20.753906 26.683594 21.308594 26.269531 21.875 C 28.75 21.875 31.234375 21.875 33.789062 21.875 C 33.757812 22.230469 33.726562 22.585938 33.691406 22.949219 C 31.015625 22.949219 28.34375 22.949219 25.585938 22.949219 C 25.585938 23.5625 25.585938 24.171875 25.585938 24.804688 C 25.199219 24.804688 24.8125 24.804688 24.414062 24.804688 C 24.414062 24.226562 24.414062 23.644531 24.414062 23.046875 C 21.773438 23.046875 19.128906 23.046875 16.40625 23.046875 C 16.40625 23.433594 16.40625 23.820312 16.40625 24.21875 C 16.375 24.21875 16.34375 24.21875 16.308594 24.21875 C 16.277344 23.445312 16.242188 22.671875 16.210938 21.875 C 18.691406 21.875 21.171875 21.875 23.730469 21.875 C 22.9375 20.839844 22.9375 20.839844 22.117188 19.824219 C 21.65625 19.257812 21.207031 18.6875 20.765625 18.105469 C 20.570312 17.851562 20.367188 17.601562 20.164062 17.355469 C 20.105469 17.28125 20.046875 17.210938 19.988281 17.136719 C 19.871094 17 19.757812 16.859375 19.640625 16.71875 C 19.585938 16.65625 19.535156 16.59375 19.480469 16.527344 C 19.433594 16.472656 19.386719 16.414062 19.339844 16.355469 C 19.238281 16.210938 19.238281 16.210938 19.238281 16.015625 C 19.394531 15.949219 19.550781 15.878906 19.707031 15.8125 C 19.796875 15.777344 19.882812 15.738281 19.972656 15.699219 C 20.214844 15.625 20.214844 15.625 20.507812 15.722656 Z M 20.507812 15.722656 "/>
<path style=" stroke:none;fill-rule:nonzero;fill:rgb(85.09804%,87.058824%,93.333334%);fill-opacity:1;" d="M 7.382812 20.480469 C 7.546875 20.476562 7.546875 20.476562 7.714844 20.476562 C 7.832031 20.476562 7.949219 20.476562 8.070312 20.476562 C 8.191406 20.472656 8.3125 20.472656 8.441406 20.472656 C 8.695312 20.472656 8.953125 20.472656 9.210938 20.472656 C 9.476562 20.472656 9.738281 20.46875 10 20.46875 C 10.382812 20.464844 10.761719 20.464844 11.140625 20.460938 C 11.257812 20.460938 11.375 20.460938 11.496094 20.457031 C 12.117188 20.460938 12.523438 20.464844 12.988281 20.898438 C 13.226562 21.257812 13.214844 21.53125 13.214844 21.945312 C 13.214844 22.019531 13.214844 22.09375 13.214844 22.171875 C 13.214844 22.328125 13.214844 22.484375 13.214844 22.640625 C 13.214844 22.878906 13.214844 23.117188 13.21875 23.355469 C 13.21875 23.507812 13.21875 23.664062 13.21875 23.816406 C 13.21875 23.886719 13.222656 23.957031 13.222656 24.03125 C 13.21875 24.488281 13.144531 24.808594 12.890625 25.195312 C 12.621094 25.386719 12.402344 25.414062 12.078125 25.410156 C 12 25.410156 11.921875 25.410156 11.839844 25.40625 C 11.761719 25.40625 11.679688 25.40625 11.597656 25.402344 C 11.515625 25.402344 11.433594 25.402344 11.347656 25.398438 C 11.144531 25.398438 10.945312 25.394531 10.742188 25.390625 C 10.746094 25.492188 10.746094 25.492188 10.753906 25.59375 C 10.753906 25.683594 10.757812 25.769531 10.761719 25.859375 C 10.765625 25.992188 10.765625 25.992188 10.769531 26.125 C 10.742188 26.367188 10.742188 26.367188 10.632812 26.546875 C 10.347656 26.726562 10.195312 26.714844 9.863281 26.660156 C 9.570312 26.492188 9.308594 26.285156 9.039062 26.082031 C 8.320312 25.5625 7.847656 25.363281 6.945312 25.417969 C 6.640625 25.390625 6.640625 25.390625 6.363281 25.164062 C 6.023438 24.742188 6.035156 24.367188 6.03125 23.851562 C 6.03125 23.777344 6.03125 23.703125 6.027344 23.625 C 6.027344 23.46875 6.027344 23.3125 6.027344 23.152344 C 6.023438 22.914062 6.019531 22.675781 6.015625 22.433594 C 6.015625 22.28125 6.015625 22.128906 6.011719 21.976562 C 6.011719 21.90625 6.007812 21.832031 6.007812 21.761719 C 6.007812 21.414062 6.042969 21.207031 6.226562 20.910156 C 6.597656 20.558594 6.875 20.484375 7.382812 20.480469 Z M 7.382812 20.480469 "/>
<path style=" stroke:none;fill-rule:nonzero;fill:rgb(85.09804%,87.058824%,92.941177%);fill-opacity:1;" d="M 31.929688 5.988281 C 32.128906 6.054688 32.128906 6.054688 32.378906 6.257812 C 32.617188 6.742188 32.585938 7.117188 32.425781 7.617188 C 32.355469 7.820312 32.28125 8.019531 32.203125 8.21875 C 32.121094 8.523438 32.15625 8.683594 32.226562 8.984375 C 32.304688 8.984375 32.386719 8.988281 32.46875 8.988281 C 32.832031 8.996094 33.195312 9.003906 33.558594 9.015625 C 33.683594 9.015625 33.808594 9.019531 33.9375 9.023438 C 34.121094 9.027344 34.121094 9.027344 34.304688 9.03125 C 34.417969 9.035156 34.527344 9.039062 34.644531 9.039062 C 35.109375 9.101562 35.429688 9.226562 35.726562 9.597656 C 35.859375 9.90625 35.878906 10.136719 35.878906 10.46875 C 35.878906 10.644531 35.878906 10.644531 35.878906 10.820312 C 35.878906 10.9375 35.878906 11.058594 35.875 11.179688 C 35.878906 11.300781 35.878906 11.421875 35.878906 11.542969 C 35.878906 11.660156 35.878906 11.773438 35.878906 11.894531 C 35.878906 11.996094 35.878906 12.101562 35.878906 12.210938 C 35.820312 12.640625 35.671875 12.878906 35.351562 13.164062 C 34.90625 13.34375 34.476562 13.328125 34.003906 13.328125 C 33.902344 13.328125 33.796875 13.328125 33.691406 13.328125 C 33.476562 13.332031 33.261719 13.332031 33.046875 13.332031 C 32.714844 13.332031 32.386719 13.335938 32.054688 13.339844 C 31.847656 13.339844 31.636719 13.339844 31.425781 13.339844 C 31.277344 13.339844 31.277344 13.339844 31.128906 13.34375 C 30.6875 13.339844 30.441406 13.328125 30.066406 13.085938 C 29.832031 12.714844 29.808594 12.402344 29.808594 11.976562 C 29.804688 11.898438 29.804688 11.816406 29.804688 11.734375 C 29.800781 11.476562 29.800781 11.21875 29.804688 10.960938 C 29.804688 10.875 29.804688 10.785156 29.804688 10.695312 C 29.8125 9.269531 29.84375 7.429688 30.804688 6.277344 C 31.1875 5.925781 31.441406 5.898438 31.929688 5.988281 Z M 31.929688 5.988281 "/>
<path style=" stroke:none;fill-rule:nonzero;fill:rgb(85.882354%,86.666667%,92.54902%);fill-opacity:1;" d="M 38.152344 21.144531 C 38.246094 21.144531 38.335938 21.144531 38.433594 21.140625 C 38.625 21.144531 38.820312 21.144531 39.015625 21.144531 C 39.3125 21.148438 39.609375 21.148438 39.90625 21.148438 C 40.09375 21.148438 40.285156 21.148438 40.472656 21.148438 C 40.605469 21.148438 40.605469 21.148438 40.742188 21.148438 C 40.824219 21.148438 40.910156 21.152344 40.992188 21.152344 C 41.066406 21.152344 41.140625 21.152344 41.214844 21.152344 C 41.460938 21.203125 41.550781 21.285156 41.699219 21.484375 C 41.726562 21.789062 41.726562 21.789062 41.71875 22.136719 C 41.714844 22.308594 41.714844 22.308594 41.710938 22.488281 C 41.707031 22.574219 41.703125 22.664062 41.699219 22.753906 C 41.75 22.722656 41.800781 22.695312 41.851562 22.664062 C 42.082031 22.527344 42.316406 22.394531 42.546875 22.257812 C 42.667969 22.1875 42.667969 22.1875 42.789062 22.117188 C 42.90625 22.050781 42.90625 22.050781 43.023438 21.980469 C 43.097656 21.941406 43.167969 21.898438 43.242188 21.855469 C 43.511719 21.757812 43.671875 21.796875 43.945312 21.875 C 43.949219 22.359375 43.953125 22.839844 43.957031 23.324219 C 43.957031 23.488281 43.957031 23.652344 43.960938 23.816406 C 43.960938 24.054688 43.964844 24.289062 43.964844 24.527344 C 43.964844 24.601562 43.964844 24.671875 43.96875 24.75 C 43.96875 24.929688 43.957031 25.113281 43.945312 25.292969 C 43.847656 25.390625 43.847656 25.390625 43.75 25.488281 C 43.261719 25.46875 42.859375 25.183594 42.449219 24.945312 C 42.378906 24.902344 42.304688 24.863281 42.230469 24.820312 C 42.054688 24.71875 41.875 24.613281 41.699219 24.511719 C 41.703125 24.601562 41.707031 24.6875 41.714844 24.777344 C 41.71875 24.953125 41.71875 24.953125 41.722656 25.128906 C 41.726562 25.242188 41.734375 25.355469 41.738281 25.476562 C 41.699219 25.78125 41.699219 25.78125 41.558594 25.945312 C 41.175781 26.144531 40.8125 26.117188 40.386719 26.117188 C 40.296875 26.117188 40.207031 26.117188 40.117188 26.117188 C 39.925781 26.117188 39.738281 26.117188 39.546875 26.117188 C 39.257812 26.117188 38.96875 26.121094 38.679688 26.121094 C 38.496094 26.121094 38.3125 26.121094 38.128906 26.121094 C 38.042969 26.125 37.957031 26.125 37.867188 26.125 C 37.507812 26.121094 37.273438 26.109375 36.957031 25.933594 C 36.742188 25.550781 36.761719 25.195312 36.765625 24.761719 C 36.765625 24.671875 36.765625 24.582031 36.761719 24.492188 C 36.761719 24.300781 36.765625 24.113281 36.765625 23.921875 C 36.765625 23.632812 36.765625 23.34375 36.761719 23.054688 C 36.761719 22.871094 36.765625 22.6875 36.765625 22.503906 C 36.765625 22.417969 36.761719 22.332031 36.761719 22.242188 C 36.765625 21.886719 36.78125 21.648438 36.957031 21.332031 C 37.347656 21.113281 37.714844 21.136719 38.152344 21.144531 Z M 38.152344 21.144531 "/>
<path style=" stroke:none;fill-rule:nonzero;fill:rgb(65.882355%,71.764708%,93.333334%);fill-opacity:1;" d="M 16.65625 46.640625 C 16.765625 46.640625 16.765625 46.640625 16.882812 46.640625 C 17.132812 46.640625 17.382812 46.640625 17.632812 46.640625 C 17.8125 46.640625 17.992188 46.640625 18.171875 46.636719 C 18.65625 46.636719 19.144531 46.636719 19.632812 46.636719 C 20.039062 46.636719 20.445312 46.636719 20.851562 46.636719 C 21.8125 46.636719 22.769531 46.636719 23.726562 46.636719 C 24.71875 46.636719 25.707031 46.636719 26.699219 46.632812 C 27.546875 46.632812 28.394531 46.628906 29.246094 46.632812 C 29.753906 46.632812 30.261719 46.632812 30.769531 46.628906 C 31.246094 46.628906 31.722656 46.628906 32.199219 46.628906 C 32.375 46.628906 32.550781 46.628906 32.726562 46.628906 C 32.964844 46.628906 33.203125 46.628906 33.441406 46.628906 C 33.511719 46.628906 33.582031 46.628906 33.652344 46.628906 C 33.980469 46.632812 34.15625 46.660156 34.421875 46.855469 C 34.570312 47.070312 34.570312 47.070312 34.558594 47.425781 C 34.472656 47.753906 34.472656 47.753906 34.277344 47.949219 C 34.03125 47.96875 33.800781 47.976562 33.554688 47.976562 C 33.441406 47.976562 33.441406 47.976562 33.328125 47.976562 C 33.074219 47.976562 32.820312 47.976562 32.566406 47.976562 C 32.382812 47.976562 32.203125 47.976562 32.019531 47.976562 C 31.527344 47.980469 31.035156 47.980469 30.539062 47.980469 C 30.128906 47.980469 29.71875 47.980469 29.304688 47.980469 C 28.335938 47.980469 27.363281 47.980469 26.394531 47.980469 C 25.390625 47.980469 24.386719 47.980469 23.386719 47.984375 C 22.523438 47.984375 21.664062 47.984375 20.804688 47.984375 C 20.292969 47.984375 19.777344 47.984375 19.261719 47.984375 C 18.78125 47.988281 18.296875 47.988281 17.8125 47.984375 C 17.636719 47.984375 17.457031 47.984375 17.28125 47.988281 C 17.039062 47.988281 16.796875 47.988281 16.554688 47.984375 C 16.484375 47.988281 16.414062 47.988281 16.339844 47.988281 C 16.0625 47.984375 15.867188 47.980469 15.628906 47.820312 C 15.453125 47.535156 15.488281 47.296875 15.527344 46.972656 C 15.851562 46.621094 16.207031 46.636719 16.65625 46.640625 Z M 16.65625 46.640625 "/>
<path style=" stroke:none;fill-rule:nonzero;fill:rgb(43.921569%,68.627453%,27.450982%);fill-opacity:1;" d="M 15.917969 9.472656 C 16.203125 9.601562 16.394531 9.734375 16.601562 9.964844 C 16.65625 10.019531 16.707031 10.078125 16.757812 10.136719 C 16.8125 10.195312 16.863281 10.253906 16.917969 10.316406 C 16.972656 10.375 17.027344 10.433594 17.082031 10.496094 C 17.214844 10.640625 17.347656 10.789062 17.480469 10.9375 C 17.882812 10.800781 18.164062 10.609375 18.488281 10.339844 C 18.574219 10.269531 18.660156 10.199219 18.75 10.125 C 18.8125 10.070312 18.878906 10.015625 18.945312 9.960938 C 20.304688 10.742188 20.304688 10.742188 20.488281 11.410156 C 20.5 11.847656 20.457031 12.125 20.238281 12.507812 C 19.878906 12.816406 19.617188 12.914062 19.144531 12.917969 C 19 12.917969 19 12.917969 18.851562 12.921875 C 18.75 12.921875 18.644531 12.921875 18.539062 12.921875 C 18.433594 12.921875 18.328125 12.921875 18.214844 12.921875 C 17.992188 12.921875 17.765625 12.921875 17.539062 12.921875 C 17.195312 12.921875 16.851562 12.921875 16.503906 12.925781 C 16.285156 12.925781 16.066406 12.925781 15.847656 12.925781 C 15.746094 12.925781 15.640625 12.929688 15.535156 12.929688 C 14.636719 12.921875 14.636719 12.921875 14.257812 12.597656 C 13.980469 12.195312 13.910156 11.835938 13.917969 11.359375 C 14.007812 10.929688 14.332031 10.722656 14.667969 10.46875 C 14.734375 10.414062 14.796875 10.359375 14.867188 10.304688 C 15.050781 10.15625 15.242188 10.007812 15.429688 9.863281 C 15.59375 9.734375 15.753906 9.601562 15.917969 9.472656 Z M 15.917969 9.472656 "/>
<path style=" stroke:none;fill-rule:nonzero;fill:rgb(74.117649%,78.039217%,94.901961%);fill-opacity:1;" d="M 43.945312 21.875 C 43.949219 22.359375 43.953125 22.839844 43.957031 23.324219 C 43.957031 23.488281 43.957031 23.652344 43.960938 23.816406 C 43.960938 24.054688 43.964844 24.289062 43.964844 24.527344 C 43.964844 24.601562 43.964844 24.671875 43.96875 24.75 C 43.96875 24.929688 43.957031 25.113281 43.945312 25.292969 C 43.882812 25.359375 43.816406 25.421875 43.75 25.488281 C 43.261719 25.46875 42.859375 25.183594 42.449219 24.945312 C 42.203125 24.800781 41.953125 24.660156 41.699219 24.511719 C 41.699219 23.929688 41.699219 23.351562 41.699219 22.753906 C 41.980469 22.585938 42.265625 22.421875 42.546875 22.257812 C 42.628906 22.210938 42.707031 22.164062 42.789062 22.117188 C 42.867188 22.070312 42.945312 22.027344 43.023438 21.980469 C 43.097656 21.941406 43.167969 21.898438 43.242188 21.855469 C 43.511719 21.757812 43.671875 21.796875 43.945312 21.875 Z M 43.945312 21.875 "/>
<path style=" stroke:none;fill-rule:nonzero;fill:rgb(39.215687%,53.725493%,80.392158%);fill-opacity:1;" d="M 23.351562 38.15625 C 23.433594 38.152344 23.515625 38.152344 23.597656 38.152344 C 23.726562 38.152344 23.726562 38.152344 23.859375 38.152344 C 23.949219 38.148438 24.039062 38.148438 24.132812 38.148438 C 24.324219 38.148438 24.511719 38.148438 24.703125 38.148438 C 24.992188 38.148438 25.28125 38.144531 25.574219 38.140625 C 25.757812 38.140625 25.941406 38.140625 26.125 38.136719 C 26.257812 38.136719 26.257812 38.136719 26.390625 38.132812 C 26.984375 38.140625 26.984375 38.140625 27.304688 38.359375 C 27.441406 38.574219 27.441406 38.574219 27.429688 38.933594 C 27.402344 39.042969 27.371094 39.148438 27.34375 39.257812 C 27.117188 39.371094 26.988281 39.367188 26.738281 39.371094 C 26.652344 39.371094 26.566406 39.375 26.480469 39.375 C 26.386719 39.375 26.292969 39.375 26.199219 39.375 C 26.058594 39.375 26.058594 39.375 25.914062 39.378906 C 25.714844 39.378906 25.515625 39.378906 25.3125 39.378906 C 25.007812 39.378906 24.703125 39.382812 24.394531 39.386719 C 24.203125 39.386719 24.007812 39.386719 23.8125 39.386719 C 23.675781 39.390625 23.675781 39.390625 23.535156 39.390625 C 23.449219 39.390625 23.363281 39.390625 23.277344 39.390625 C 23.164062 39.390625 23.164062 39.390625 23.046875 39.390625 C 22.796875 39.34375 22.707031 39.269531 22.558594 39.0625 C 22.570312 38.714844 22.570312 38.714844 22.65625 38.378906 C 22.953125 38.179688 23.015625 38.160156 23.351562 38.15625 Z M 23.351562 38.15625 "/>
<path style=" stroke:none;fill-rule:nonzero;fill:rgb(100%,58.039218%,1.568628%);fill-opacity:1;" d="M 23.34375 29.363281 C 23.449219 29.363281 23.449219 29.363281 23.558594 29.363281 C 23.773438 29.363281 23.984375 29.363281 24.199219 29.359375 C 24.335938 29.359375 24.472656 29.359375 24.609375 29.359375 C 24.796875 29.359375 24.796875 29.359375 24.984375 29.359375 C 25.292969 29.394531 25.292969 29.394531 25.484375 29.523438 C 25.585938 29.6875 25.585938 29.6875 25.574219 30.035156 C 25.488281 30.371094 25.488281 30.371094 25.195312 30.566406 C 24.742188 30.609375 24.289062 30.597656 23.835938 30.597656 C 23.707031 30.597656 23.582031 30.601562 23.453125 30.601562 C 23.273438 30.601562 23.273438 30.601562 23.085938 30.601562 C 22.921875 30.601562 22.921875 30.601562 22.75 30.601562 C 22.429688 30.5625 22.292969 30.507812 22.070312 30.273438 C 22.035156 29.925781 22.035156 29.925781 22.070312 29.589844 C 22.40625 29.253906 22.890625 29.363281 23.34375 29.363281 Z M 23.34375 29.363281 "/>
<path style=" stroke:none;fill-rule:nonzero;fill:rgb(100%,57.254905%,1.176471%);fill-opacity:1;" d="M 25.367188 26.816406 C 25.460938 26.816406 25.460938 26.816406 25.558594 26.816406 C 25.695312 26.816406 25.828125 26.816406 25.964844 26.816406 C 26.171875 26.820312 26.378906 26.816406 26.582031 26.816406 C 26.714844 26.816406 26.847656 26.816406 26.976562 26.816406 C 27.097656 26.816406 27.214844 26.816406 27.339844 26.816406 C 27.636719 26.855469 27.636719 26.855469 27.820312 26.984375 C 27.992188 27.242188 27.964844 27.4375 27.929688 27.734375 C 27.820312 27.898438 27.820312 27.898438 27.636719 28.027344 C 27.339844 28.066406 27.339844 28.066406 26.976562 28.070312 C 26.914062 28.070312 26.851562 28.070312 26.785156 28.070312 C 26.648438 28.070312 26.515625 28.070312 26.378906 28.070312 C 26.171875 28.070312 25.964844 28.074219 25.761719 28.074219 C 25.628906 28.074219 25.496094 28.074219 25.367188 28.074219 C 25.1875 28.074219 25.1875 28.074219 25.003906 28.078125 C 24.707031 28.027344 24.707031 28.027344 24.523438 27.84375 C 24.386719 27.585938 24.371094 27.433594 24.414062 27.148438 C 24.664062 26.78125 24.949219 26.816406 25.367188 26.816406 Z M 25.367188 26.816406 "/>
<path style=" stroke:none;fill-rule:nonzero;fill:rgb(100%,58.039218%,1.568628%);fill-opacity:1;" d="M 27.101562 29.371094 C 27.214844 29.367188 27.328125 29.363281 27.445312 29.363281 C 27.589844 29.378906 27.589844 29.378906 27.734375 29.394531 C 27.960938 29.734375 27.980469 29.875 27.929688 30.273438 C 27.648438 30.546875 27.4375 30.609375 27.050781 30.609375 C 26.726562 30.597656 26.585938 30.578125 26.300781 30.414062 C 26.117188 30.074219 26.171875 29.855469 26.269531 29.492188 C 26.546875 29.351562 26.789062 29.375 27.101562 29.371094 Z M 27.101562 29.371094 "/>
<path style=" stroke:none;fill-rule:nonzero;fill:rgb(100%,57.254905%,1.176471%);fill-opacity:1;" d="M 22.894531 26.820312 C 22.988281 26.816406 23.078125 26.816406 23.175781 26.816406 C 23.476562 26.859375 23.613281 26.933594 23.828125 27.148438 C 23.871094 27.449219 23.894531 27.640625 23.714844 27.898438 C 23.457031 28.082031 23.261719 28.066406 22.949219 28.0625 C 22.847656 28.066406 22.742188 28.066406 22.636719 28.066406 C 22.363281 28.027344 22.363281 28.027344 22.183594 27.898438 C 22.007812 27.644531 22.03125 27.449219 22.070312 27.148438 C 22.300781 26.824219 22.507812 26.816406 22.894531 26.820312 Z M 22.894531 26.820312 "/>
</g>
</svg>
